# xmcd
#
# Track frame offsets: 
#        150
#        9043
#        19537
#        25778
#        33713
#        45886
#        58700
#        62445
#        76023
#        83943
#        89073
#        98272
#        105890
#        118641
#        135112
#        147013
#        155031
#        172241
#        186019
#        194005
#        205390
#        214070
#        223878
#        240214
#
# Disc length: 3402 seconds
#
# Revision: 1
# Processed by: cddbd v1.5.2PL0 Copyright (c) Steve Scherf et al.
# Submitted via: ExactAudioCopy v0.95a5
#
DISCID=310d4818
DTITLE=Botafogo - Solo-Acústico
DYEAR=1999
DGENRE=Blues
TTITLE0=El Hombre Suburbano
TTITLE1=Another Man Done Gone
TTITLE2=Let Mermaids Flirt With Me
TTITLE3=Slide Blues
TTITLE4=Little Red Rooster
TTITLE5=Blues Para Mi Guitarra
TTITLE6=Manuelita La Tortuga
TTITLE7=My Baby
TTITLE8=Precious Lord
TTITLE9=Buck Dancer's Choice
TTITLE10=Yo Me Pregunto
TTITLE11=I Just Want To Make Love To You
TTITLE12=Hoochie Coochie Man
TTITLE13=No Puede Ser
TTITLE14=You Gotta Move
TTITLE15=Corrina, Corrina
TTITLE16=Señores
TTITLE17=Spoonfull
TTITLE18=Built For Comfort
TTITLE19=El Reino Del Revés
TTITLE20=I Ain't Superstitious
TTITLE21=Love In Vain
TTITLE22=Penetieso Blues
TTITLE23=Backdoor Man
EXTD=
EXTT0=
EXTT1=
EXTT2=
EXTT3=
EXTT4=
EXTT5=
EXTT6=
EXTT7=
EXTT8=
EXTT9=
EXTT10=
EXTT11=
EXTT12=
EXTT13=
EXTT14=
EXTT15=
EXTT16=
EXTT17=
EXTT18=
EXTT19=
EXTT20=
EXTT21=
EXTT22=
EXTT23=
PLAYORDER=
